<svg width="118" height="146" viewBox="0 0 118 146" fill="none" xmlns="http://www.w3.org/2000/svg">
<path d="M41.598 145.417H35.7937C35.5518 145.417 35.4309 145.173 35.4309 145.051V0.486952C35.4309 0.243373 35.6728 0.121582 35.7937 0.121582H41.598C41.8399 0.121582 41.9608 0.365163 41.9608 0.486952V145.051C42.0817 145.295 41.8399 145.417 41.598 145.417Z" fill="white"/>
<path d="M22.1299 9.49992V145.174C22.1299 145.295 22.0089 145.417 21.888 145.417H18.0185C17.8975 145.417 17.7766 145.295 17.7766 145.174V9.49992C17.7766 9.37813 17.8975 9.25635 18.0185 9.25635H21.888C22.0089 9.25635 22.1299 9.37813 22.1299 9.49992Z" fill="white"/>
<path d="M2.41848 18.5121V145.173C2.41848 145.295 2.29755 145.417 2.17662 145.417H0.241844C0.12092 145.417 0 145.295 0 145.173V18.5121C0 18.3903 0.12092 18.2686 0.241844 18.2686H2.17662C2.29755 18.2686 2.41848 18.3903 2.41848 18.5121Z" fill="white"/>
<path d="M75.5782 0H81.3826C81.6244 0 81.7453 0.243581 81.7453 0.36537V144.93C81.7453 145.173 81.5035 145.295 81.3826 145.295H75.5782C75.3364 145.295 75.2155 145.052 75.2155 144.93V0.487161C75.2155 0.243581 75.3364 0 75.5782 0Z" fill="white"/>
<path d="M95.0465 9.49992V145.174C95.0465 145.295 95.1674 145.417 95.2884 145.417H99.1579C99.2788 145.417 99.3998 145.295 99.3998 145.174V9.49992C99.3998 9.37813 99.2788 9.25635 99.1579 9.25635H95.2884C95.1674 9.25635 95.0465 9.37813 95.0465 9.49992Z" fill="white"/>
<path d="M114.758 18.5121V145.173C114.758 145.295 114.879 145.417 115 145.417H116.934C117.055 145.417 117.176 145.295 117.176 145.173V18.5121C117.176 18.3903 117.055 18.2686 116.934 18.2686H115C114.758 18.2686 114.758 18.3903 114.758 18.5121Z" fill="white"/>
<path d="M61.9143 18.7562V108.637C61.9143 108.881 61.6724 109.002 61.5515 109.002H55.7472C55.5053 109.002 55.3844 108.759 55.3844 108.637V18.7562C55.3844 18.5126 55.6263 18.3908 55.7472 18.3908H61.5515C61.7934 18.269 61.9143 18.5126 61.9143 18.7562Z" fill="white"/>
</svg>
